{"title":"Broken.Horses.2015.HDRip.x264-MenaceIISociety","uid":12342001,"size":842281185,"categoryP":"video","categoryS":"movies","magnet":"?xt=urn:btih:be30afb544320b7b61e6121205001630e01afd16&amp;dn=Broken.Horses.2015.HDRip.x264-MenaceIISociety&amp;tr=udp%3A%2F%2Ftracker.openbittorrent.com%3A80&amp;tr=udp%3A%2F%2Fopen.demonii.com%3A1337&amp;tr=udp%3A%2F%2Ftracker.coppersurfer.tk%3A6969&amp;tr=udp%3A%2F%2Fexodus.desync.com%3A6969","seeders":0,"leechers":0,"uploader":"TvTeam","files":4,"time":1441310014,"description":"------------------------------------------------------------------------\n\n &lt;a href=&quot; https://www.torrenting.com&quot; rel=&quot;nofollow&quot; target=&quot;_NEW&quot;&gt; https://www.torrenting.com&lt;/a&gt;\n\nSign up is OPEN - for time being. Come and have fun\n\n.......................................................................................................................[center][IMG]http://lookpic.com/O/i2/1631/XwRXBaeE.png[/IMG]\n\nBroken.Horses.2015.HDRip.x264-MenaceIISociety &lt;a href=&quot;\nhttp://www.imdb.com/title/tt2503954/&quot; rel=&quot;nofollow&quot; target=&quot;_NEW&quot;&gt;\nhttp://www.imdb.com/title/tt2503954/&lt;/a&gt;\n\nSource: 1080p.WEB-DL.DD5.1.H264-RK [THANKS]\n\nNOTE: [url]http://screenshotcomparison.com/comparison/140701[/url]\n\nGeneral\nComplete name                            : Broken.Horses.2015.HDRip.x264-MenaceIISociety.mp4\nFormat                                   : MPEG-4\nFormat profile                           : Base Media\nCodec ID                                 : isom\nFile size                                : 790 MiB\nDuration                                 : 1h 40mn\nOverall bit rate mode                    : Variable\nOverall bit rate                         : 1 097 Kbps\nEncoded date                             : UTC 2015-08-31 12:11:24\nTagged date                              : UTC 2015-08-31 12:11:24\n\nVideo\nID                                       : 1\nFormat                                   : AVC\nFormat/Info                              : Advanced Video Codec\nFormat profile                           : &lt;a class=&quot;__cf_email__&quot; href=&quot;/cdn-cgi/l/email-protection&quot; data-cfemail=&quot;9fd7f6f8f7dfd3abb1ae&quot;&gt;[email&amp;#160;protected]&lt;/a&gt;&lt;script data-cfhash='f9e31' type=&quot;text/javascript&quot;&gt;\n/* &lt;![CDATA[ */!function(){try{var t=&quot;currentScript&quot;in document?document.currentScript:function(){for(var t=document.getElementsByTagName(&quot;script&quot;),e=t.length;e--;)if(t[e].getAttribute(&quot;data-cfhash&quot;))return t[e]}();if(t&amp;&amp;t.previousSibling){var e,r,n,i,c=t.previousSibling,a=c.getAttribute(&quot;data-cfemail&quot;);if(a){for(e=&quot;&quot;,r=parseInt(a.substr(0,2),16),n=2;a.length-n;n+=2)i=parseInt(a.substr(n,2),16)^r,e+=String.fromCharCode(i);e=document.createTextNode(e),c.parentNode.replaceChild(e,c)}t.parentNode.removeChild(t);}}catch(u){}}()/* ]]&gt; */&lt;/script&gt;\nFormat settings, CABAC                   : Yes\nFormat settings, ReFrames                : 3 frames\nCodec ID                                 : avc1\nCodec ID/Info                            : Advanced Video Coding\nDuration                                 : 1h 40mn\nBit rate mode                            : Variable\nBit rate                                 : 802 Kbps\nMaximum bit rate                         : 40.0 Mbps\nWidth                                    : 720 pixels\nHeight                                   : 304 pixels\nDisplay aspect ratio                     : 2.35:1\nFrame rate mode                          : Constant\nFrame rate                               : 23.976 fps\nColor space                              : YUV\nChroma subsampling                       : 4:2:0\nBit depth                                : 8 bits\nScan type                                : Progressive\nBits/(Pixel*Frame)                       : 0.153\nStream size                              : 577 MiB (73%)\nWriting library                          : x264 core 148 r2597 e86f3a1\n\nAudio\nID                                       : 2\nFormat                                   : AAC\nFormat/Info                              : Advanced Audio Codec\nFormat profile                           : LC\nCodec ID                                 : 40\nDuration                                 : 1h 40mn\nBit rate mode                            : Variable\nBit rate                                 : 288 Kbps\nMaximum bit rate                         : 457 Kbps\nChannel(s)                               : 6 channels\nChannel positions                        : Front: L C R, Side: L R, LFE\nSampling rate                            : 48.0 KHz\nCompression mode                         : Lossy\nStream size                              : 210 MiB (27%)\nLanguage                                 : English\nEncoded date                             : UTC 2015-08-31 10:35:53\nTagged date                              : UTC 2015-08-31 12:12:40\n\n[img]http://s24.postimg.org/eubayk47p/vlcsnap_2015_08_31_14h21m08s535.jpg[/img]\n[img]http://s24.postimg.org/u0hcphu8l/vlcsnap_2015_08_31_14h21m28s159.jpg[/img]\n[img]http://s24.postimg.org/quwqzabmd/vlcsnap_2015_08_31_14h22m20s679.jpg[/img]\n[img]http://s24.postimg.org/ung9f0r4l/vlcsnap_2015_08_31_14h22m54s092.jpg[/img]\n[img]http://s24.postimg.org/lm1q1et79/vlcsnap_2015_08_31_14h23m16s837.jpg[/img]\n[img]http://s24.postimg.org/pq2otwp5h/vlcsnap_2015_08_31_14h23m55s475.jpg[/img]\n[img]http://s24.postimg.org/3kn6hcok5/vlcsnap_2015_08_31_14h25m03s526.jpg[/img]\n[img]http://s24.postimg.org/rcwhsvql1/vlcsnap_2015_08_31_14h25m42s616.jpg[/img] \n \n[img]http://s17.postimg.org/r1iiyw8yn/Untitled_1.png[/img][/center]","torrent":{"xt":"urn:btih:be30afb544320b7b61e6121205001630e01afd16","amp;dn":"Broken.Horses.2015.HDRip.x264-MenaceIISociety","amp;tr":["udp%3A%2F%2Ftracker.openbittorrent.com%3A80","udp%3A%2F%2Fopen.demonii.com%3A1337","udp%3A%2F%2Ftracker.coppersurfer.tk%3A6969","udp%3A%2F%2Fexodus.desync.com%3A6969"],"infoHash":"be30afb544320b7b61e6121205001630e01afd16","infoHashBuffer":{"type":"Buffer","data":[190,48,175,181,68,50,11,123,97,230,18,18,5,0,22,48,224,26,253,22]},"announce":[],"urlList":[]}}